<svg width="346" height="169" viewBox="0 0 346 169" fill="none" xmlns="http://www.w3.org/2000/svg">
<g clip-path="url(#clip0_9_2)">
<path d="M145.48 138.984L104.008 14.568L62.7283 138.984L21.8323 18.6H14.9203L62.3442 157.032L104.008 32.424L145.672 157.032L193.096 18.6H186.184L145.48 138.984Z" fill="#DB9000"/>
<path d="M10.7773 22.184H37.9773L9.49725 65H40.8573V63.016H13.1453L41.6253 20.2H10.7773V22.184Z" fill="#616161"/>
<path d="M48.477 56.296C48.477 54.5467 48.8823 53.1387 49.693 52.072C50.5037 50.9627 51.5917 50.1733 52.957 49.704C54.3223 49.192 55.8157 48.936 57.437 48.936C59.3143 48.936 61.085 49.192 62.749 49.704C64.413 50.216 65.949 51.0053 67.357 52.072V50.6C66.973 50.216 66.3117 49.768 65.373 49.256C64.4343 48.744 63.2823 48.296 61.917 47.912C60.5943 47.4853 59.0157 47.272 57.181 47.272C53.9383 47.272 51.3357 48.0827 49.373 49.704C47.453 51.3253 46.493 53.5653 46.493 56.424C46.493 58.5147 46.9623 60.2427 47.901 61.608C48.8823 62.9733 50.1197 63.9973 51.613 64.68C53.1063 65.32 54.6423 65.64 56.221 65.64C58.013 65.64 59.741 65.2347 61.405 64.424C63.069 63.5707 64.4343 62.2907 65.501 60.584C66.6103 58.8773 67.165 56.744 67.165 54.184L66.589 52.136C66.589 54.7813 66.1197 56.9787 65.181 58.728C64.2423 60.4773 63.0263 61.7787 61.533 62.632C60.0823 63.4853 58.4823 63.912 56.733 63.912C55.325 63.912 53.981 63.656 52.701 63.144C51.4637 62.5893 50.4397 61.7573 49.629 60.648C48.861 59.5387 48.477 58.088 48.477 56.296ZM49.309 39.848C49.949 39.3787 50.6957 38.9093 51.549 38.44C52.4023 37.9707 53.405 37.5653 54.557 37.224C55.709 36.8827 57.0103 36.712 58.461 36.712C60.253 36.712 61.6823 36.9893 62.749 37.544C63.8583 38.056 64.6903 38.7387 65.245 39.592C65.7997 40.4027 66.1623 41.256 66.333 42.152C66.5037 43.0053 66.589 43.7947 66.589 44.52V65H68.509V44.328C68.509 42.3227 68.125 40.616 67.357 39.208C66.6317 37.8 65.5223 36.7333 64.029 36.008C62.5783 35.2827 60.765 34.92 58.589 34.92C56.157 34.92 54.109 35.304 52.445 36.072C50.781 36.84 49.4157 37.608 48.349 38.376L49.309 39.848ZM77.1645 50.28C77.1645 47.6773 77.7405 45.352 78.8925 43.304C80.0445 41.256 81.6018 39.656 83.5645 38.504C85.5698 37.352 87.7885 36.776 90.2205 36.776C91.7992 36.776 93.2498 37.0107 94.5725 37.48C95.9378 37.9493 97.1112 38.5253 98.0925 39.208C99.0738 39.848 99.7778 40.488 100.205 41.128V38.632C99.4365 37.736 98.1352 36.904 96.3005 36.136C94.4658 35.3253 92.4392 34.92 90.2205 34.92C87.3618 34.92 84.8018 35.5813 82.5405 36.904C80.2792 38.2267 78.4872 40.04 77.1645 42.344C75.8418 44.648 75.1805 47.2933 75.1805 50.28C75.1805 53.224 75.8418 55.8693 77.1645 58.216C78.4872 60.52 80.2792 62.3333 82.5405 63.656C84.8018 64.9787 87.3618 65.64 90.2205 65.64C92.4392 65.64 94.4658 65.256 96.3005 64.488C98.1352 63.6773 99.4365 62.824 100.205 61.928V59.432C99.7778 60.072 99.0738 60.7333 98.0925 61.416C97.1112 62.056 95.9378 62.6107 94.5725 63.08C93.2498 63.5493 91.7992 63.784 90.2205 63.784C87.7885 63.784 85.5698 63.208 83.5645 62.056C81.6018 60.904 80.0445 59.304 78.8925 57.256C77.7405 55.208 77.1645 52.8827 77.1645 50.28ZM111.107 15.08H109.123V65H111.107V15.08ZM128.003 45.288V65H129.987V45.096C129.987 42.9627 129.646 41.1493 128.963 39.656C128.323 38.1627 127.342 37.0107 126.019 36.2C124.696 35.3467 123.011 34.92 120.963 34.92C118.958 34.92 117.144 35.4533 115.523 36.52C113.944 37.5867 112.686 39.0373 111.747 40.872C110.808 42.664 110.339 44.7333 110.339 47.08H111.107C111.107 45.2027 111.512 43.496 112.323 41.96C113.134 40.3813 114.264 39.1227 115.715 38.184C117.166 37.2453 118.787 36.776 120.579 36.776C123.267 36.776 125.166 37.5653 126.275 39.144C127.427 40.68 128.003 42.728 128.003 45.288ZM139.602 56.296C139.602 54.5467 140.007 53.1387 140.818 52.072C141.629 50.9627 142.717 50.1733 144.082 49.704C145.447 49.192 146.941 48.936 148.562 48.936C150.439 48.936 152.21 49.192 153.874 49.704C155.538 50.216 157.074 51.0053 158.482 52.072V50.6C158.098 50.216 157.437 49.768 156.498 49.256C155.559 48.744 154.407 48.296 153.042 47.912C151.719 47.4853 150.141 47.272 148.306 47.272C145.063 47.272 142.461 48.0827 140.498 49.704C138.578 51.3253 137.618 53.5653 137.618 56.424C137.618 58.5147 138.087 60.2427 139.026 61.608C140.007 62.9733 141.245 63.9973 142.738 64.68C144.231 65.32 145.767 65.64 147.346 65.64C149.138 65.64 150.866 65.2347 152.53 64.424C154.194 63.5707 155.559 62.2907 156.626 60.584C157.735 58.8773 158.29 56.744 158.29 54.184L157.714 52.136C157.714 54.7813 157.245 56.9787 156.306 58.728C155.367 60.4773 154.151 61.7787 152.658 62.632C151.207 63.4853 149.607 63.912 147.858 63.912C146.45 63.912 145.106 63.656 143.826 63.144C142.589 62.5893 141.565 61.7573 140.754 60.648C139.986 59.5387 139.602 58.088 139.602 56.296ZM140.434 39.848C141.074 39.3787 141.821 38.9093 142.674 38.44C143.527 37.9707 144.53 37.5653 145.682 37.224C146.834 36.8827 148.135 36.712 149.586 36.712C151.378 36.712 152.807 36.9893 153.874 37.544C154.983 38.056 155.815 38.7387 156.37 39.592C156.925 40.4027 157.287 41.256 157.458 42.152C157.629 43.0053 157.714 43.7947 157.714 44.52V65H159.634V44.328C159.634 42.3227 159.25 40.616 158.482 39.208C157.757 37.8 156.647 36.7333 155.154 36.008C153.703 35.2827 151.89 34.92 149.714 34.92C147.282 34.92 145.234 35.304 143.57 36.072C141.906 36.84 140.541 37.608 139.474 38.376L140.434 39.848ZM171.17 35.56H169.186V65H171.17V35.56ZM181.602 38.12L182.69 36.52C182.092 36.008 181.41 35.624 180.642 35.368C179.874 35.0693 179.084 34.92 178.274 34.92C176.61 34.92 175.159 35.4533 173.922 36.52C172.727 37.5867 171.81 39.0373 171.17 40.872C170.572 42.664 170.274 44.7333 170.274 47.08H171.17C171.17 45.2027 171.383 43.496 171.81 41.96C172.279 40.3813 173.004 39.1227 173.986 38.184C175.01 37.2453 176.311 36.776 177.89 36.776C178.572 36.776 179.212 36.904 179.81 37.16C180.407 37.3733 181.004 37.6933 181.602 38.12ZM212.446 35.56H210.27L198.814 62.12L199.966 62.248L188.19 35.56H185.886L198.238 62.888L191.07 79.08H193.246L212.446 35.56Z" fill="#616161"/>
<path d="M178.029 109.352C178.029 109.736 178.157 110.077 178.413 110.376C178.712 110.675 179.075 110.824 179.501 110.824C179.971 110.824 180.333 110.675 180.589 110.376C180.845 110.077 180.973 109.736 180.973 109.352C180.973 108.925 180.845 108.584 180.589 108.328C180.333 108.029 179.971 107.88 179.501 107.88C179.075 107.88 178.712 108.029 178.413 108.328C178.157 108.584 178.029 108.925 178.029 109.352ZM178.541 123.56V153H180.525V123.56H178.541ZM202.345 153.64C205.161 153.64 207.615 153.043 209.705 151.848C211.796 150.653 213.716 148.755 215.465 146.152L213.865 145.128C212.329 147.432 210.665 149.117 208.873 150.184C207.081 151.251 204.969 151.784 202.537 151.784C200.276 151.784 198.271 151.208 196.521 150.056C194.815 148.861 193.449 147.24 192.425 145.192C191.444 143.101 190.953 140.733 190.953 138.088C190.953 135.485 191.465 133.181 192.489 131.176C193.513 129.128 194.9 127.549 196.649 126.44C198.441 125.288 200.468 124.712 202.729 124.712C204.82 124.712 206.697 125.224 208.361 126.248C210.068 127.272 211.412 128.68 212.393 130.472C213.375 132.264 213.865 134.269 213.865 136.488C213.865 136.829 213.823 137.171 213.737 137.512C213.695 137.811 213.631 138.067 213.545 138.28L214.441 137H190.249V138.728H215.849C215.892 138.472 215.913 138.195 215.913 137.896C215.956 137.597 215.977 137.341 215.977 137.128C215.977 134.44 215.401 132.029 214.249 129.896C213.097 127.72 211.519 126.013 209.513 124.776C207.551 123.539 205.289 122.92 202.729 122.92C200.084 122.92 197.716 123.581 195.625 124.904C193.577 126.184 191.956 127.976 190.761 130.28C189.567 132.584 188.969 135.229 188.969 138.216C188.969 141.16 189.545 143.805 190.697 146.152C191.849 148.456 193.428 150.291 195.433 151.656C197.481 152.979 199.785 153.64 202.345 153.64ZM225.568 103.08H223.584V153H225.568V103.08ZM251.104 138.28C251.104 135.123 250.486 132.413 249.248 130.152C248.054 127.848 246.39 126.077 244.256 124.84C242.166 123.56 239.819 122.92 237.216 122.92C234.656 122.92 232.438 123.624 230.56 125.032C228.683 126.44 227.232 128.317 226.208 130.664C225.184 133.011 224.672 135.549 224.672 138.28C224.672 140.968 225.184 143.507 226.208 145.896C227.232 148.243 228.683 150.12 230.56 151.528C232.438 152.936 234.656 153.64 237.216 153.64C239.819 153.64 242.166 153.021 244.256 151.784C246.39 150.504 248.054 148.712 249.248 146.408C250.486 144.104 251.104 141.395 251.104 138.28ZM249.184 138.28C249.184 141.053 248.63 143.464 247.52 145.512C246.411 147.517 244.939 149.075 243.104 150.184C241.27 151.251 239.2 151.784 236.896 151.784C234.848 151.784 232.95 151.165 231.2 149.928C229.494 148.648 228.128 147.005 227.104 145C226.08 142.952 225.568 140.712 225.568 138.28C225.568 135.848 226.08 133.629 227.104 131.624C228.128 129.576 229.494 127.933 231.2 126.696C232.95 125.416 234.848 124.776 236.896 124.776C239.2 124.776 241.27 125.331 243.104 126.44C244.939 127.507 246.411 129.043 247.52 131.048C248.63 133.053 249.184 135.464 249.184 138.28ZM269.908 153.64C272.724 153.64 275.177 153.043 277.268 151.848C279.358 150.653 281.278 148.755 283.028 146.152L281.428 145.128C279.892 147.432 278.228 149.117 276.436 150.184C274.644 151.251 272.532 151.784 270.1 151.784C267.838 151.784 265.833 151.208 264.084 150.056C262.377 148.861 261.012 147.24 259.988 145.192C259.006 143.101 258.516 140.733 258.516 138.088C258.516 135.485 259.028 133.181 260.052 131.176C261.076 129.128 262.462 127.549 264.212 126.44C266.004 125.288 268.03 124.712 270.292 124.712C272.382 124.712 274.26 125.224 275.924 126.248C277.63 127.272 278.974 128.68 279.956 130.472C280.937 132.264 281.428 134.269 281.428 136.488C281.428 136.829 281.385 137.171 281.3 137.512C281.257 137.811 281.193 138.067 281.108 138.28L282.004 137H257.812V138.728H283.412C283.454 138.472 283.476 138.195 283.476 137.896C283.518 137.597 283.54 137.341 283.54 137.128C283.54 134.44 282.964 132.029 281.812 129.896C280.66 127.72 279.081 126.013 277.076 124.776C275.113 123.539 272.852 122.92 270.292 122.92C267.646 122.92 265.278 123.581 263.188 124.904C261.14 126.184 259.518 127.976 258.324 130.28C257.129 132.584 256.532 135.229 256.532 138.216C256.532 141.16 257.108 143.805 258.26 146.152C259.412 148.456 260.99 150.291 262.996 151.656C265.044 152.979 267.348 153.64 269.908 153.64Z" fill="#616161"/>
</g>
<defs>
<clipPath id="clip0_9_2">
<rect width="346" height="169" fill="white"/>
</clipPath>
</defs>
</svg>
