<svg width="402" height="220" viewBox="0 0 402 220" fill="none" xmlns="http://www.w3.org/2000/svg">
<g clip-path="url(#clip0_7_33)">
<path d="M171.824 158.984L130.352 34.568L89.072 158.984L48.176 
38.6H41.264L88.688 177.032L130.352 52.424L172.016 177.032L219.44 
38.6H212.528L171.824 158.984Z" fill="#DB9000"/>
<path d="M40.496 43.184H67.696L39.216 86H70.576V84.016H42.864L71.344 
41.2H40.496V43.184Z" fill="#616161"/>
<path d="M81.352 77.296C81.352 75.5467 81.7573 74.1387 82.568 
73.072C83.3787 71.9627 84.4667 71.1733 85.832 70.704C87.1973 70.192 88.6907 69.936 90.312 69.936C92.1893 69.936 93.96 70.192 95.624 70.704C97.288 71.216 98.824 72.0053 100.232 73.072V71.6C99.848 71.216 99.1867 70.768 98.248 70.256C97.3093 69.744 96.1573 69.296 94.792 68.912C93.4693 68.4853 91.8907 68.272 90.056 68.272C86.8133 68.272 84.2107 69.0827 82.248 70.704C80.328 72.3253 79.368 74.5653 79.368 77.424C79.368 79.5147 79.8373 81.2427 80.776 82.608C81.7573 83.9733 82.9947 84.9973 84.488 85.68C85.9813 86.32 87.5173 86.64 89.096 86.64C90.888 86.64 92.616 86.2347 94.28 85.424C95.944 84.5707 97.3093 83.2907 98.376 81.584C99.4853 79.8773 100.04 77.744 100.04 75.184L99.464 73.136C99.464 75.7813 98.9947 77.9787 98.056 79.728C97.1173 81.4773 95.9013 82.7787 94.408 83.632C92.9573 84.4853 91.3573 84.912 89.608 84.912C88.2 84.912 86.856 84.656 85.576 84.144C84.3387 83.5893 83.3147 82.7573 82.504 81.648C81.736 80.5387 81.352 79.088 81.352 77.296ZM82.184 60.848C82.824 60.3787 83.5707 59.9093 84.424 59.44C85.2773 58.9707 86.28 58.5653 87.432 58.224C88.584 57.8827 89.8853 57.712 91.336 57.712C93.128 57.712 94.5573 57.9893 95.624 58.544C96.7333 59.056 97.5653 59.7387 98.12 60.592C98.6747 61.4027 99.0373 62.256 99.208 63.152C99.3787 64.0053 99.464 64.7947 99.464 65.52V86H101.384V65.328C101.384 63.3227 101 61.616 100.232 60.208C99.5067 58.8 98.3973 57.7333 96.904 57.008C95.4533 56.2827 93.64 55.92 91.464 55.92C89.032 55.92 86.984 56.304 85.32 57.072C83.656 57.84 82.2907 58.608 81.224 59.376L82.184 60.848ZM110.04 71.28C110.04 68.6773 110.616 66.352 111.768 64.304C112.92 62.256 114.477 60.656 116.44 59.504C118.445 58.352 120.664 57.776 123.096 57.776C124.674 57.776 126.125 58.0107 127.448 58.48C128.813 58.9493 129.986 59.5253 130.968 60.208C131.949 60.848 132.653 61.488 133.08 62.128V59.632C132.312 58.736 131.01 57.904 129.176 57.136C127.341 56.3253 125.314 55.92 123.096 55.92C120.237 55.92 117.677 56.5813 115.416 57.904C113.154 59.2267 111.362 61.04 110.04 63.344C108.717 65.648 108.056 68.2933 108.056 71.28C108.056 74.224 108.717 76.8693 110.04 79.216C111.362 81.52 113.154 83.3333 115.416 84.656C117.677 85.9787 120.237 86.64 123.096 86.64C125.314 86.64 127.341 86.256 129.176 85.488C131.01 84.6773 132.312 83.824 133.08 82.928V80.432C132.653 81.072 131.949 81.7333 130.968 82.416C129.986 83.056 128.813 83.6107 127.448 84.08C126.125 84.5493 124.674 84.784 123.096 84.784C120.664 84.784 118.445 84.208 116.44 83.056C114.477 81.904 112.92 80.304 111.768 78.256C110.616 76.208 110.04 73.8827 110.04 71.28ZM143.982 36.08H141.998V86H143.982V36.08ZM160.878 66.288V86H162.862V66.096C162.862 63.9627 162.521 62.1493 161.838 60.656C161.198 59.1627 160.217 58.0107 158.894 57.2C157.571 56.3467 155.886 55.92 153.838 55.92C151.833 55.92 150.019 56.4533 148.398 57.52C146.819 58.5867 145.561 60.0373 144.622 61.872C143.683 63.664 143.214 65.7333 143.214 68.08H143.982C143.982 66.2027 144.387 64.496 145.198 62.96C146.009 61.3813 147.139 60.1227 148.59 59.184C150.041 58.2453 151.662 57.776 153.454 57.776C156.142 57.776 158.041 58.5653 159.15 60.144C160.302 61.68 160.878 63.728 160.878 66.288ZM172.477 77.296C172.477 75.5467 172.882 74.1387 173.693 73.072C174.504 71.9627 175.592 71.1733 176.957 70.704C178.322 70.192 179.816 69.936 181.437 69.936C183.314 69.936 185.085 70.192 186.749 70.704C188.413 71.216 189.949 72.0053 191.357 73.072V71.6C190.973 71.216 190.312 70.768 189.373 70.256C188.434 69.744 187.282 69.296 185.917 68.912C184.594 68.4853 183.016 68.272 181.181 68.272C177.938 68.272 175.336 69.0827 173.373 70.704C171.453 72.3253 170.493 74.5653 170.493 77.424C170.493 79.5147 170.962 81.2427 171.901 82.608C172.882 83.9733 174.12 84.9973 175.613 85.68C177.106 86.32 178.642 86.64 180.221 86.64C182.013 86.64 183.741 86.2347 185.405 85.424C187.069 84.5707 188.434 83.2907 189.501 81.584C190.61 79.8773 191.165 77.744 191.165 75.184L190.589 73.136C190.589 75.7813 190.12 77.9787 189.181 79.728C188.242 81.4773 187.026 82.7787 185.533 83.632C184.082 84.4853 182.482 84.912 180.733 84.912C179.325 84.912 177.981 84.656 176.701 84.144C175.464 83.5893 174.44 82.7573 173.629 81.648C172.861 80.5387 172.477 79.088 172.477 77.296ZM173.309 60.848C173.949 60.3787 174.696 59.9093 175.549 59.44C176.402 58.9707 177.405 58.5653 178.557 58.224C179.709 57.8827 181.01 57.712 182.461 57.712C184.253 57.712 185.682 57.9893 186.749 58.544C187.858 59.056 188.69 59.7387 189.245 60.592C189.8 61.4027 190.162 62.256 190.333 63.152C190.504 64.0053 190.589 64.7947 190.589 65.52V86H192.509V65.328C192.509 63.3227 192.125 61.616 191.357 60.208C190.632 58.8 189.522 57.7333 188.029 57.008C186.578 56.2827 184.765 55.92 182.589 55.92C180.157 55.92 178.109 56.304 176.445 57.072C174.781 57.84 173.416 58.608 172.349 59.376L173.309 60.848ZM204.045 56.56H202.061V86H204.045V56.56ZM214.477 59.12L215.565 57.52C214.967 57.008 214.285 56.624 213.517 56.368C212.749 56.0693 211.959 55.92 211.149 55.92C209.485 55.92 208.034 56.4533 206.797 57.52C205.602 58.5867 204.685 60.0373 204.045 61.872C203.447 63.664 203.149 65.7333 203.149 68.08H204.045C204.045 66.2027 204.258 64.496 204.685 62.96C205.154 61.3813 205.879 60.1227 206.861 59.184C207.885 58.2453 209.186 57.776 210.765 57.776C211.447 57.776 212.087 57.904 212.685 58.16C213.282 58.3733 213.879 58.6933 214.477 59.12ZM245.321 56.56H243.145L231.689 83.12L232.841 83.248L221.065 56.56H218.761L231.113 83.888L223.945 100.08H226.121L245.321 56.56Z" fill="#616161"/>
<path d="M214.872 113.528C214.872 114.104 215.064 114.616 215.448 
115.064C215.896 115.512 216.44 115.736 217.08 115.736C217.784 
115.736 218.328 115.512 218.712 115.064C219.096 114.616 219.288 
114.104 219.288 113.528C219.288 112.888 219.096 112.376 218.712 
111.992C218.328 111.544 217.784 111.32 217.08 111.32C216.44 111.32 
215.896 111.544 215.448 111.992C215.064 112.376 214.872 112.888 214.872 
113.528ZM215.64 134.84V179H218.616V134.84H215.64ZM251.346 179.96C255.57 
179.96 259.25 179.064 262.386 177.272C265.522 175.48 268.402 172.632 
271.026 168.728L268.626 167.192C266.322 170.648 263.826 173.176 261.138 
174.776C258.45 176.376 255.282 177.176 251.634 177.176C248.242 177.176 
245.234 176.312 242.61 174.584C240.05 172.792 238.002 170.36 236.466 
167.288C234.994 164.152 234.258 160.6 234.258 156.632C234.258 152.728 
235.026 149.272 236.562 146.264C238.098 143.192 240.178 140.824 242.802 
139.16C245.49 137.432 248.53 136.568 251.922 136.568C255.058 136.568 
257.874 137.336 260.37 138.872C262.93 140.408 264.946 142.52 266.418 
145.208C267.89 147.896 268.626 150.904 268.626 154.232C268.626 154.744 
268.562 155.256 268.434 155.768C268.37 156.216 268.274 156.6 268.146 
156.92L269.49 155H233.202V157.592H271.602C271.666 157.208 271.698 156.792 
271.698 156.344C271.762 155.896 271.794 155.512 271.794 155.192C271.794 
151.16 270.93 147.544 269.202 144.344C267.474 141.08 265.106 138.52 
262.098 136.664C259.154 134.808 255.762 133.88 251.922 133.88C247.954 
133.88 244.402 134.872 241.266 136.856C238.194 138.776 235.762 141.464 
233.97 144.92C232.178 148.376 231.282 152.344 231.282 156.824C231.282 
161.24 232.146 165.208 233.874 168.728C235.602 172.184 237.97 174.936 
240.978 176.984C244.05 178.968 247.506 179.96 251.346 179.96ZM286.181 
104.12H283.205V179H286.181V104.12ZM324.485 156.92C324.485 152.184 323.557 
148.12 321.701 144.728C319.909 141.272 317.413 138.616 314.213 
136.76C311.077 134.84 307.557 133.88 303.653 133.88C299.813 133.88 296.485 
134.936 293.669 137.048C290.853 139.16 288.677 141.976 287.141 
145.496C285.605 149.016 284.837 152.824 284.837 156.92C284.837 
160.952 285.605 164.76 287.141 168.344C288.677 171.864 290.853 174.68 
293.669 176.792C296.485 178.904 299.813 179.96 303.653 179.96C307.557 
179.96 311.077 179.032 314.213 177.176C317.413 175.256 319.909 172.568 
321.701 169.112C323.557 165.656 324.485 161.592 324.485 156.92ZM321.605 
156.92C321.605 161.08 320.773 164.696 319.109 167.768C317.445 170.776 
315.237 173.112 312.485 174.776C309.733 176.376 306.629 177.176 303.173 
177.176C300.101 177.176 297.253 176.248 294.629 174.392C292.069 172.472 
290.021 170.008 288.484 167C286.949 163.928 286.181 160.568 286.181 
156.92C286.181 153.272 286.949 149.944 288.484 146.936C290.021 143.864 
292.069 141.4 294.629 139.544C297.253 137.624 300.101 136.664 303.173 
136.664C306.629 136.664 309.733 137.496 312.485 139.16C315.237 140.76 
317.445 143.064 319.109 146.072C320.773 149.08 321.605 152.696 321.605 
156.92ZM352.69 179.96C356.914 179.96 360.594 179.064 363.73 
177.272C366.866 175.48 369.746 172.632 372.37 168.728L369.97 
167.192C367.666 170.648 365.17 173.176 362.482 174.776C359.794 
176.376 356.626 177.176 352.978 177.176C349.586 177.176 346.578 
176.312 343.954 174.584C341.394 172.792 339.346 170.36 337.81 
167.288C336.338 164.152 335.602 160.6 335.602 156.632C335.602 
152.728 336.37 149.272 337.906 146.264C339.442 143.192 341.522 140.824 
344.146 139.16C346.834 137.432 349.874 136.568 353.266 136.568C356.402 
136.568 359.218 137.336 361.714 138.872C364.274 140.408 366.29 142.52 367.762 
145.208C369.234 147.896 369.97 150.904 369.97 154.232C369.97 154.744 369.906 
155.256 369.778 155.768C369.714 156.216 369.618 156.6 369.49 156.92L370.834 
155H334.546V157.592H372.946C373.01 157.208 373.042 156.792 373.042 156.344C373.106 
155.896 373.138 155.512 373.138 155.192C373.138 151.16 372.274 147.544 370.546 
144.344C368.818 141.08 366.45 138.52 363.442 136.664C360.498 134.808 357.106 133.88 
353.266 133.88C349.298 133.88 345.746 134.872 342.61 136.856C339.538 138.776 337.106 
141.464 335.314 144.92C333.522 148.376 332.626 152.344 332.626 156.824C332.626 161.24 
333.49 165.208 335.218 168.728C336.946 172.184 339.314 174.936 342.322 176.984C345.394 
178.968 348.85 179.96 352.69 179.96Z" fill="#616161"/>
</g>
<defs>
<clipPath id="clip0_7_33">
<rect width="402" height="220" fill="white"/>
</clipPath>
</defs>
</svg>
